<?xml version="1.0" encoding="utf-8"?><svg version="1.1" id="Layer_1" xmlns="http://www.w3.org/2000/svg" xmlns:xlink="http://www.w3.org/1999/xlink" x="0px" y="0px" viewBox="0 0 122.88 122.88" style="enable-background:new 0 0 122.88 122.88" xml:space="preserve"><g><path d="M46.14,73.88V48.96c0.15-1.91-1.1-2.53-3.12-2.46h-4.83v-6.72h10.4v-8.43h5.88v8.43h4.61v-8.43h5.88v8.53 c1.3,0.04,2.6,0.1,3.78,0.17c5.35,0.31,9.07,1.18,11.45,6.4c0.66,1.44,1.01,3,1.01,4.54c0,2.01-0.48,3.19-1.46,4.81 c-0.97,1.62-2.4,2.77-4.29,3.6c14,1.74,11.43,21.68-3.24,23.23c-1.24,0.13-4.28,0.29-7.26,0.39v8.52h-5.88v-8.41h-4.61v8.41h-5.88 v-8.41h-10.4l1.45-6.5h4.64C45.76,76.84,46.27,75.78,46.14,73.88L46.14,73.88L46.14,73.88z M61.44,0c16.97,0,32.33,6.88,43.44,18 c11.12,11.12,18,26.48,18,43.44c0,16.97-6.88,32.33-18,43.44c-11.12,11.12-26.48,18-43.44,18S29.11,116,18,104.88 C6.88,93.77,0,78.41,0,61.44C0,44.47,6.88,29.11,18,18C29.11,6.88,44.47,0,61.44,0L61.44,0z M99.91,22.97 C90.07,13.12,76.47,7.03,61.44,7.03c-15.03,0-28.63,6.09-38.47,15.94C13.12,32.81,7.03,46.41,7.03,61.44 c0,15.03,6.09,28.63,15.94,38.47c9.85,9.85,23.45,15.94,38.47,15.94c15.03,0,28.63-6.09,38.47-15.94 c9.85-9.85,15.94-23.45,15.94-38.47C115.85,46.41,109.76,32.81,99.91,22.97L99.91,22.97z M64.95,47.64v9.78 C71.95,55.73,71.49,49.45,64.95,47.64L64.95,47.64z M64.95,63.43v12.11c0.74-0.07,1.38-0.16,1.92-0.26 c7.09-1.33,8.73-9.62,0.25-11.5C66.5,63.64,65.78,63.52,64.95,63.43L64.95,63.43L64.95,63.43z M59.07,75.76V63.21h-2.41v12.55 H59.07L59.07,75.76z M59.07,57.85v-10.7h-2.41v10.7H59.07L59.07,57.85z"/></g></svg>