<svg version="1.1" id="Layer_1" xmlns="http://www.w3.org/2000/svg" xmlns:xlink="http://www.w3.org/1999/xlink" x="0px" y="0px"
	 width="100%" viewBox="0 0 1024 1024" enable-background="new 0 0 1024 1024" xml:space="preserve">
<path fill="#000000" opacity="1.000000" stroke="none" 
	d="
M155.686111,434.369202 
	C148.624573,429.936523 148.627853,427.395660 155.297073,423.236084 
	C217.907654,384.186279 280.500519,345.108093 343.117676,306.068756 
	C395.418579,273.461212 447.745758,240.895859 500.057251,208.305267 
	C501.894409,207.160660 503.641876,205.866837 505.510742,204.779312 
	C510.691315,201.764709 515.889282,201.643845 521.058838,204.869827 
	C560.053955,229.204300 599.052917,253.532593 638.047607,277.867767 
	C680.009827,304.054962 721.971130,330.243530 763.928162,356.439026 
	C799.528625,378.665863 835.138611,400.877502 870.705566,423.157715 
	C878.043396,427.754364 877.919922,430.142395 870.618225,434.694824 
	C803.623169,476.465179 736.644897,518.262268 669.645630,560.025818 
	C619.891663,591.039673 570.087341,621.973083 520.385986,653.070984 
	C515.196045,656.318237 510.855316,656.276855 505.656525,653.019226 
	C430.418091,605.874084 355.101288,558.854004 279.793030,511.820282 
	C238.535721,486.053070 197.259277,460.316528 155.686111,434.369202 
M651.083862,558.555908 
	C720.124451,515.493042 789.164978,472.430206 858.087280,429.441132 
	C857.316711,427.335999 855.978882,426.869446 854.885254,426.183350 
	C839.645752,416.621613 824.402039,407.066345 809.134094,397.550049 
	C750.323608,360.894318 691.501770,324.256775 632.688538,287.605438 
	C594.517090,263.817780 556.324158,240.064331 518.229797,216.153839 
	C514.327026,213.704193 511.466339,213.766693 507.502686,216.250351 
	C441.029846,257.902954 374.458282,299.398071 307.890747,340.899475 
	C265.632996,367.244995 223.332565,393.522186 181.092056,419.895264 
	C176.798798,422.575775 172.281265,425.022949 168.506134,428.572235 
	C170.243286,431.348358 172.809662,432.338928 175.017181,433.716644 
	C238.170761,473.130066 301.355530,512.493530 364.513611,551.899719 
	C412.699219,581.964111 460.875000,612.044434 508.979980,642.237488 
	C512.144653,644.223816 514.283752,644.073853 517.412476,642.109192 
	C561.706116,614.294922 606.099304,586.639099 651.083862,558.555908 
z"/>
<path fill="#000000" opacity="1.000000" stroke="none" 
	d="
M370.472534,550.555054 
	C319.741302,518.849670 269.317505,487.338654 218.876266,455.855438 
	C206.725815,448.271667 194.516342,440.782440 182.336853,433.245148 
	C176.416016,429.581055 176.462219,428.020752 182.329559,424.361084 
	C219.079422,401.438995 255.797318,378.465698 292.547302,355.543823 
	C337.068665,327.774719 381.617004,300.048767 426.142792,272.286682 
	C453.282990,255.364609 480.440918,238.470230 507.489014,221.402039 
	C511.388763,218.941208 514.432007,218.840927 518.407349,221.331314 
	C583.757080,262.270477 649.191162,303.074768 714.600281,343.919098 
	C757.123352,370.472382 799.645874,397.026459 842.146179,423.616211 
	C850.279785,428.704834 850.193726,429.337585 842.181274,434.331940 
	C770.103943,479.259766 698.046936,524.220337 625.971985,569.151855 
	C590.217468,591.441162 554.415527,613.654480 518.701172,636.007690 
	C514.866943,638.407471 511.627258,638.747803 507.659332,636.261658 
	C462.070129,607.698120 416.412781,579.243347 370.472534,550.555054 
M821.303040,439.745941 
	C826.820374,436.266724 832.337708,432.787537 837.770203,429.361786 
	C836.409302,426.735046 834.603455,426.085815 833.078125,425.133911 
	C792.232117,399.642792 751.368347,374.180084 710.517456,348.696899 
	C646.344116,308.664978 582.161194,268.648285 518.053101,228.512207 
	C514.456604,226.260559 511.738953,226.099274 508.104584,228.394974 
	C484.446228,243.339172 460.658020,258.077698 436.918335,272.893219 
	C361.599792,319.898132 286.273651,366.890961 210.982864,413.940308 
	C203.534042,418.595123 195.756165,422.778534 188.913345,428.274628 
	C189.568756,430.782593 191.629562,431.427124 193.265961,432.449188 
	C241.298584,462.449493 289.348267,492.422485 337.390503,522.407410 
	C394.480438,558.039307 451.583801,593.649841 508.607849,629.386902 
	C511.921753,631.463806 514.393250,631.516052 517.640991,629.444885 
	C531.967102,620.308777 546.422485,611.375305 560.832092,602.370056 
	C612.393982,570.146484 663.948303,537.911011 715.521240,505.705017 
	C750.561951,483.822968 785.628784,461.982635 821.303040,439.745941 
z"/>
<path fill="#000000" opacity="1.000000" stroke="none" 
	d="
M410.046448,379.327515 
	C410.575989,376.674622 411.004578,374.420258 411.483521,371.901184 
	C408.772217,371.574982 407.523621,373.264679 406.241455,374.608185 
	C393.995941,387.439514 390.656006,402.806854 393.744446,419.842590 
	C394.710999,425.174164 394.634308,425.749298 389.190430,425.234192 
	C382.240265,424.576599 376.890747,421.532593 372.838257,415.326965 
	C367.202026,406.696014 364.059326,397.946899 366.514099,387.587860 
	C369.861725,373.461182 376.865906,361.661072 388.389862,352.764954 
	C403.124146,341.390594 419.863495,337.365021 438.209808,339.898987 
	C443.029755,340.564758 445.842224,342.754486 449.036255,347.447052 
	C457.257660,359.525635 455.132751,373.288147 457.920044,386.117493 
	C461.436859,402.305054 462.991730,418.918793 465.580048,436.628601 
	C468.459991,431.520569 468.664337,426.933807 469.543976,422.630493 
	C474.773560,397.047882 479.892639,371.442047 484.879761,345.811096 
	C485.723907,341.472809 487.544342,339.518341 492.183228,339.748566 
	C498.833191,340.078644 505.516693,339.989319 512.176392,339.778564 
	C516.734009,339.634277 518.895325,341.050690 517.547913,345.890839 
	C517.386475,346.470764 517.655701,347.170563 517.744507,347.993103 
	C527.982788,349.283508 520.830566,356.181000 521.986206,360.976654 
	C525.799805,357.529510 529.254395,353.992493 533.282654,351.118988 
	C548.355713,340.367004 565.079712,337.311462 583.104553,340.257782 
	C587.098694,340.910675 590.531067,342.405182 590.907104,347.233551 
	C590.944519,347.714203 591.079712,348.377014 591.413025,348.617004 
	C598.627319,353.810425 596.850037,362.076294 597.999268,369.088623 
	C601.548645,390.747101 604.427673,412.515381 607.598206,434.236450 
	C607.660828,434.666046 608.104980,435.039978 608.755066,436.016479 
	C611.337524,428.863068 612.159180,421.812469 613.574402,414.939758 
	C618.438782,391.317108 623.129944,367.658508 627.787415,343.993958 
	C628.387695,340.943970 629.963440,339.790863 632.920044,339.809052 
	C640.752563,339.857269 648.585999,339.841278 656.418457,339.774384 
	C659.591614,339.747314 661.139343,340.844452 660.389771,344.288452 
	C660.045288,345.871277 659.695068,348.195862 661.947510,348.357513 
	C667.049866,348.723755 665.736572,351.961578 665.130981,354.780304 
	C657.339783,391.048737 649.446838,427.295380 641.691101,463.571381 
	C638.908142,476.588074 636.274292,489.641266 633.879150,502.733917 
	C632.964417,507.734100 630.814636,509.876740 625.532104,509.444275 
	C620.069641,508.997070 614.540161,509.301575 609.041687,509.387695 
	C606.276733,509.431000 604.558777,508.371307 604.185120,505.539398 
	C603.911804,503.467590 603.268738,501.796021 601.145569,500.774292 
	C599.083374,499.781921 599.089050,497.528687 598.778625,495.556854 
	C595.054993,471.899841 591.353455,448.239258 587.561768,424.593140 
	C587.072388,421.541504 586.107605,418.566071 585.004028,414.103210 
	C582.563416,425.319275 580.401306,435.130585 578.296692,444.954193 
	C574.114807,464.473236 569.861511,483.978088 565.879639,503.538055 
	C564.973633,507.988342 562.980896,509.682068 558.447815,509.440796 
	C552.465637,509.122375 546.452698,509.387604 540.453003,509.389526 
	C532.979492,509.391937 532.979492,509.386505 532.856079,501.996094 
	C527.256226,501.421600 527.468933,497.998718 528.445068,493.467773 
	C536.816589,454.608917 545.003113,415.710175 553.230408,376.820312 
	C553.563782,375.244446 554.252625,373.620972 552.830688,371.651428 
	C543.861938,377.164062 539.497498,385.757111 536.936218,395.335510 
	C534.370667,404.929596 534.381531,414.701477 537.360168,424.668518 
	C524.374573,427.245056 517.449341,420.057953 512.216003,409.750031 
	C511.757751,410.036041 511.299500,410.322052 510.841217,410.608063 
	C509.314087,417.667847 507.769318,424.723877 506.262970,431.788086 
	C501.094116,456.028076 495.915100,480.266022 490.804321,504.518280 
	C490.068756,508.008728 488.363678,509.577362 484.617523,509.416199 
	C478.795593,509.165710 472.954285,509.379669 467.121338,509.361267 
	C465.643677,509.356598 463.370087,509.688660 463.049438,508.226166 
	C461.697998,502.062195 456.330322,498.180481 455.409210,491.332886 
	C452.002380,466.006927 447.420959,440.838959 442.371368,415.487488 
	C441.043701,421.002106 439.594727,426.490784 438.409393,432.035828 
	C433.330658,455.794250 428.229553,479.548859 423.385559,503.355499 
	C422.430634,508.048645 420.355560,509.690094 415.613281,509.441254 
	C408.633240,509.074982 401.618683,509.321686 394.619537,509.386383 
	C391.621216,509.414093 389.658081,508.756104 390.528259,505.084991 
	C390.924103,503.414948 390.941284,501.576111 388.547028,501.306366 
	C384.968109,500.903107 384.955078,498.833313 385.569733,495.954956 
	C391.162628,469.764618 396.678314,443.557770 402.179230,417.347900 
	C404.809418,404.815948 407.359222,392.267181 410.046448,379.327515 
z"/>
</svg>